<svg width="24" height="24" viewBox="0 0 24 24" fill="none" xmlns="http://www.w3.org/2000/svg">
<path d="M16 8.00004L2 22M17.5 15H9M12.67 19C12.9331 19 13.1936 18.948 13.4366 18.8471C13.6796 18.7462 13.9003 18.5984 14.086 18.412L20.24 12.24C21.3658 11.1142 21.9983 9.58722 21.9983 7.99504C21.9983 6.40285 21.3658 4.87588 20.24 3.75004C19.1142 2.62419 17.5872 1.9917 15.995 1.9917C14.4028 1.9917 12.8758 2.62419 11.75 3.75004L5.586 9.91404C5.2109 10.289 5.00011 10.7976 5 11.328V18C5 18.2653 5.10536 18.5196 5.29289 18.7071C5.48043 18.8947 5.73478 19 6 19H12.67Z" stroke="white" stroke-width="2" stroke-linecap="round" stroke-linejoin="round"/>
</svg>
