<svg width="20" height="14" viewBox="0 0 20 14" fill="none" xmlns="http://www.w3.org/2000/svg">
<path d="M11.8269 13.5697C11.4503 13.5695 11.0751 13.524 10.7094 13.4343C9.34025 13.0968 8.786 12.4593 8.56475 12.0468C7.68687 12.2257 5.33563 12.4968 4.35875 10.5423C4.11439 10.1268 4.01932 9.64027 4.0893 9.16335C4.15927 8.68642 4.39009 8.24772 4.7435 7.91992C5.27458 7.41502 5.98296 7.13929 6.71563 7.15229C6.97407 6.61656 7.41995 6.19415 7.96887 5.96504C8.65362 5.70929 9.43887 5.84054 10.3029 6.35467C10.3871 6.4061 10.4477 6.48866 10.4714 6.58445C10.4952 6.68024 10.4802 6.78153 10.4298 6.86636C10.3794 6.95119 10.2975 7.01272 10.202 7.03761C10.1065 7.06249 10.005 7.04873 9.91962 6.99929C9.26262 6.60817 8.696 6.49529 8.23625 6.66592C8.01675 6.76947 7.81981 6.91528 7.6567 7.09499C7.49358 7.27471 7.36749 7.48481 7.28563 7.71329C7.26812 7.76579 7.23921 7.81376 7.20097 7.85377C7.16273 7.89377 7.11611 7.92481 7.06446 7.94467C7.0128 7.96453 6.95739 7.97271 6.90221 7.96863C6.84702 7.96454 6.79342 7.94829 6.74525 7.92104C6.58138 7.82879 5.80775 7.94242 5.26025 8.46367C5.02142 8.6797 4.86711 8.97356 4.82487 9.29282C4.78263 9.61208 4.85519 9.93596 5.02963 10.2067C5.93563 12.0198 8.66038 11.2544 8.68813 11.2469C8.73969 11.2319 8.79388 11.2282 8.84701 11.236C8.90014 11.2437 8.95099 11.2628 8.99611 11.2919C9.04123 11.3211 9.07957 11.3595 9.10853 11.4048C9.1375 11.45 9.15641 11.5009 9.164 11.554C9.16887 11.5758 9.335 12.3224 10.889 12.7049C12.0939 13.0019 13.2271 12.6805 13.6265 12.1987C13.7199 12.0878 13.777 11.9508 13.7898 11.8063C13.8026 11.6618 13.7706 11.5169 13.6981 11.3913C13.6566 11.3009 13.6526 11.1978 13.6871 11.1045C13.7216 11.0112 13.7917 10.9354 13.8821 10.8939C13.9724 10.8523 14.0756 10.8483 14.1689 10.8828C14.2622 10.9173 14.3379 10.9874 14.3795 11.0778C14.5117 11.3317 14.5657 11.6191 14.5346 11.9036C14.5035 12.1882 14.3887 12.4571 14.2047 12.6764C13.7337 13.2453 12.8225 13.5697 11.8269 13.5697Z" fill="white"/>
<path d="M3.8683 10.1197C3.02931 10.1354 2.20723 9.88278 1.52192 9.39853C0.670674 8.76365 0.165924 7.75453 0.0219242 6.39853C-0.216951 4.15378 1.55005 3.13828 2.6998 2.8574C2.8783 2.27503 3.4768 0.863527 5.12867 0.628027C6.11803 0.476497 7.12986 0.589312 8.06155 0.955027C8.53105 0.383527 9.55592 -0.273848 11.1467 0.119152C12.7059 0.503527 13.3138 1.1354 13.5467 1.53103C14.4167 1.4294 16.8733 1.39865 17.8011 4.02703C18.4138 5.7629 17.5603 6.45253 17.1635 6.6689C16.1443 7.22578 14.5862 6.82265 14.0259 6.10153C13.0547 4.85353 13.7113 3.98578 13.7398 3.9494C13.7697 3.90933 13.8073 3.87564 13.8504 3.85031C13.8935 3.82498 13.9412 3.80852 13.9908 3.80191C14.0403 3.79529 14.0907 3.79865 14.1389 3.81179C14.1872 3.82493 14.2323 3.84758 14.2716 3.8784C14.311 3.90923 14.3438 3.94762 14.3681 3.99131C14.3924 4.03499 14.4077 4.0831 14.4132 4.13279C14.4186 4.18249 14.4141 4.23277 14.3998 4.28068C14.3855 4.32859 14.3618 4.37316 14.33 4.41178C14.3229 4.42303 14.0203 4.8734 14.6177 5.64103C14.9747 6.1004 16.1428 6.37153 16.8039 6.01078C17.4279 5.6699 17.3049 4.8794 17.0923 4.27678C16.1871 1.71215 13.5152 2.28515 13.4027 2.31028C13.3533 2.32159 13.3022 2.32278 13.2523 2.31378C13.2025 2.30478 13.155 2.28578 13.1127 2.25792C13.0704 2.23006 13.0342 2.19392 13.0062 2.15168C12.9783 2.10944 12.9592 2.06198 12.95 2.01215C12.95 2.01215 12.7292 1.2824 10.9625 0.847027C9.19592 0.411652 8.54305 1.55953 8.51605 1.60715C8.49206 1.65092 8.45962 1.6895 8.42062 1.72065C8.38162 1.75179 8.33682 1.77489 8.28882 1.78859C8.24083 1.8023 8.19059 1.80635 8.14102 1.8005C8.09145 1.79465 8.04354 1.77903 8.00005 1.75453C7.13588 1.35186 6.1707 1.21795 5.22955 1.37015C3.71717 1.58615 3.38005 3.18215 3.36617 3.24965C3.35146 3.3244 3.31434 3.39289 3.25974 3.44601C3.20515 3.49913 3.13567 3.53437 3.06055 3.54703C2.95742 3.56503 0.517674 4.01465 0.762924 6.3194C0.887799 7.45715 1.2913 8.28965 1.96517 8.79478C2.67506 9.26707 3.53486 9.45934 4.3783 9.3344C4.47616 9.3164 4.57717 9.33801 4.6591 9.39449C4.74103 9.45096 4.79717 9.53766 4.81517 9.63553C4.83318 9.73339 4.81156 9.8344 4.75509 9.91633C4.69862 9.99826 4.61191 10.0544 4.51405 10.0724C4.30049 10.1061 4.08449 10.1219 3.8683 10.1197Z" fill="white"/>
<path d="M17.5933 11.5236H17.5854C17.486 11.5215 17.3915 11.4799 17.3227 11.4081C17.254 11.3363 17.2165 11.2401 17.2186 11.1407C17.2187 11.0912 17.2288 11.0422 17.2482 10.9967C17.2677 10.9512 17.2962 10.91 17.3319 10.8758C17.3677 10.8415 17.41 10.8149 17.4563 10.7974C17.5026 10.7799 17.552 10.7719 17.6015 10.774C17.6353 10.774 18.6009 10.7339 18.9733 8.896C19.3606 6.9835 17.4328 5.89937 17.4129 5.88887C17.3697 5.86516 17.3316 5.83317 17.3008 5.79474C17.2699 5.7563 17.247 5.71218 17.2332 5.66487C17.2194 5.61756 17.2151 5.56801 17.2205 5.51903C17.2259 5.47006 17.2409 5.42262 17.2646 5.37943C17.2883 5.33625 17.3203 5.29815 17.3587 5.26732C17.3971 5.2365 17.4413 5.21354 17.4886 5.19977C17.5359 5.186 17.5854 5.18168 17.6344 5.18706C17.6834 5.19244 17.7308 5.20741 17.774 5.23112C18.6163 5.6935 20.1046 7.08512 19.7083 9.04487C19.2181 11.4662 17.7305 11.5236 17.5933 11.5236Z" fill="white"/>
<path d="M15.4183 13.8625C14.6135 13.8227 13.8281 13.6017 13.1207 13.216C13.034 13.1673 12.9701 13.0861 12.9433 12.9903C12.9164 12.8945 12.9287 12.792 12.9774 12.7053C13.0262 12.6185 13.1074 12.5547 13.2031 12.5278C13.2989 12.501 13.4015 12.5133 13.4882 12.562C13.5028 12.5703 14.9792 13.387 16.0078 13.021C16.1961 12.9509 16.3663 12.8394 16.5058 12.6947C16.6453 12.55 16.7505 12.3759 16.8137 12.1851C16.9835 11.8256 17.0621 11.4297 17.0425 11.0325C17.0229 10.6354 16.9056 10.2492 16.7012 9.90813C16.4452 9.54776 16.1076 9.25306 15.716 9.04809C15.3244 8.84311 14.8898 8.73369 14.4478 8.72875C14.3483 8.72378 14.2549 8.6795 14.1881 8.60566C14.1213 8.53182 14.0866 8.43446 14.0916 8.335C14.0965 8.23555 14.1408 8.14214 14.2146 8.07533C14.2885 8.00852 14.3858 7.97378 14.4853 7.97875C15.0464 7.98967 15.5969 8.13341 16.0917 8.39819C16.5865 8.66296 17.0116 9.04124 17.3319 9.502C17.5998 9.94375 17.7559 10.4441 17.7868 10.9598C17.8177 11.4755 17.7225 11.9909 17.5093 12.4615C17.4072 12.7524 17.2417 13.0169 17.0247 13.2359C16.8078 13.455 16.5448 13.623 16.2549 13.7279C15.9857 13.8199 15.7028 13.8655 15.4183 13.8625ZM9.30506 4.52988C9.21449 4.53006 9.12692 4.49745 9.05852 4.43809C8.99013 4.37873 8.94552 4.29662 8.93295 4.20693C8.92038 4.11724 8.94069 4.02604 8.99013 3.95016C9.03958 3.87428 9.11481 3.81886 9.20193 3.79413C9.32437 3.77015 9.43895 3.71618 9.53541 3.63706C9.63188 3.55794 9.70721 3.45613 9.75468 3.34075C9.79681 3.17244 9.79983 2.99671 9.76349 2.82704C9.72715 2.65738 9.65243 2.4983 9.54506 2.362C9.48842 2.28025 9.46657 2.17935 9.48433 2.08149C9.50209 1.98363 9.55799 1.89683 9.63974 1.84019C9.7215 1.78355 9.8224 1.76171 9.92026 1.77946C10.0181 1.79722 10.1049 1.85313 10.1616 1.93488C10.3385 2.1682 10.4579 2.43997 10.51 2.7281C10.5621 3.01624 10.5455 3.31261 10.4616 3.59313C10.3743 3.82077 10.2329 4.02371 10.0495 4.18439C9.86618 4.34507 9.64643 4.45863 9.40931 4.51525C9.37544 4.52514 9.34033 4.53006 9.30506 4.52988Z" fill="white"/>
<path d="M12.0602 6.58906C11.9628 6.58911 11.8692 6.55125 11.7992 6.4835C11.7292 6.41575 11.6883 6.32342 11.6852 6.22606C11.6102 3.92806 10.1597 3.79906 10.0978 3.79456C9.99884 3.7881 9.90644 3.74269 9.84087 3.66826C9.7753 3.59383 9.74188 3.49645 9.74795 3.39744C9.75337 3.29886 9.79768 3.20647 9.87114 3.14052C9.94461 3.07458 10.0412 3.04047 10.1398 3.04569C10.1616 3.04569 12.3384 3.19306 12.4344 6.20206C12.4376 6.30141 12.4011 6.39793 12.3332 6.47042C12.2652 6.54292 12.1712 6.58546 12.0718 6.58869L12.0602 6.58906ZM9.50907 10.7197C9.44095 10.7196 9.37414 10.701 9.31581 10.6658C9.25748 10.6306 9.20984 10.5802 9.17799 10.52C9.14615 10.4598 9.13131 10.392 9.13507 10.324C9.13883 10.256 9.16104 10.1903 9.19932 10.1339C9.30812 10.0059 9.38791 9.85575 9.43322 9.69393C9.47853 9.5321 9.48829 9.36239 9.46182 9.19644C9.40474 9.08217 9.32567 8.98029 9.22915 8.89664C9.13262 8.81298 9.02054 8.7492 8.89932 8.70894C8.80424 8.6796 8.72471 8.61369 8.67823 8.52571C8.63174 8.43773 8.62211 8.33489 8.65145 8.23981C8.68079 8.14473 8.74669 8.0652 8.83467 8.01871C8.92265 7.97223 9.02549 7.9626 9.12057 7.99194C9.35361 8.067 9.56787 8.19108 9.74898 8.35582C9.93009 8.52056 10.0738 8.72216 10.1706 8.94706C10.2458 9.22313 10.2533 9.51325 10.1925 9.79284C10.1317 10.0724 10.0045 10.3333 9.82145 10.5532C9.78711 10.6045 9.74063 10.6466 9.68614 10.6756C9.63165 10.7047 9.57082 10.7198 9.50907 10.7197Z" fill="white"/>
<path d="M12.6332 10.7197C12.5502 10.7196 12.4695 10.692 12.4039 10.6411C12.3383 10.5903 12.2914 10.5192 12.2705 10.4388C12.2349 10.2266 12.152 10.0251 12.0282 9.84913C11.9043 9.67318 11.7425 9.52728 11.5547 9.42218C10.8984 9.11131 10.034 9.50506 10.0254 9.50918C9.98082 9.53009 9.93255 9.542 9.88335 9.54425C9.83416 9.5465 9.785 9.53904 9.73868 9.52229C9.69237 9.50554 9.64981 9.47983 9.61343 9.44663C9.57705 9.41344 9.54757 9.3734 9.52667 9.3288C9.50576 9.28421 9.49384 9.23594 9.4916 9.18674C9.48935 9.13755 9.49681 9.08839 9.51356 9.04207C9.53031 8.99576 9.55602 8.9532 9.58921 8.91682C9.62241 8.88044 9.66245 8.85096 9.70704 8.83006C9.75504 8.80718 10.8932 8.28331 11.8704 8.74156C12.1603 8.89087 12.4124 9.10437 12.6073 9.3658C12.8023 9.62724 12.935 9.9297 12.9954 10.2502C13.0099 10.3057 13.0114 10.3637 12.9999 10.4199C12.9884 10.4761 12.9642 10.5289 12.9291 10.5742C12.894 10.6195 12.849 10.6562 12.7975 10.6815C12.746 10.7067 12.6894 10.7198 12.632 10.7197H12.6332ZM2.39342 7.25168C2.34089 7.25171 2.28897 7.24046 2.24117 7.21868C2.15108 7.17823 2.08058 7.10387 2.04498 7.01176C2.00939 6.91964 2.01156 6.8172 2.05104 6.72668C2.15207 6.50399 2.30043 6.30599 2.48578 6.14648C2.67113 5.98697 2.88903 5.86977 3.12429 5.80306C3.62642 5.69768 4.15779 5.89981 4.69929 6.40306C4.73546 6.43649 4.76469 6.47673 4.78531 6.52146C4.80594 6.5662 4.81754 6.61456 4.81948 6.66378C4.82141 6.713 4.81363 6.76212 4.79658 6.80833C4.77953 6.85454 4.75354 6.89695 4.7201 6.93312C4.68667 6.96929 4.64643 6.99852 4.6017 7.01914C4.55696 7.03976 4.5086 7.05137 4.45938 7.0533C4.41016 7.05524 4.36104 7.04746 4.31483 7.03041C4.26861 7.01335 4.22621 6.98737 4.19004 6.95393C4.07719 6.82293 3.9373 6.71792 3.77999 6.64613C3.62269 6.57434 3.4517 6.53747 3.27879 6.53806C3.15892 6.57849 3.04872 6.64331 2.95513 6.72844C2.86155 6.81357 2.78661 6.91716 2.73504 7.03268C2.70488 7.09794 2.65671 7.15323 2.59618 7.19203C2.53566 7.23083 2.46531 7.25152 2.39342 7.25168ZM6.75767 4.84531C6.69446 4.84529 6.63228 4.82929 6.57692 4.79881C6.34542 4.69148 6.14099 4.53352 5.97872 4.33659C5.81646 4.13966 5.7005 3.9088 5.63942 3.66106C5.60461 3.41523 5.6188 3.16494 5.68117 2.92462C5.74353 2.6843 5.85284 2.45869 6.00279 2.26081C6.06517 2.186 6.15421 2.13841 6.25106 2.12809C6.34791 2.11777 6.44498 2.14554 6.52172 2.20552C6.59846 2.2655 6.64885 2.35298 6.66223 2.44946C6.67561 2.54593 6.65093 2.64383 6.59342 2.72243C6.42341 2.94976 6.34547 3.23287 6.37517 3.51518C6.41793 3.65414 6.49039 3.78215 6.58751 3.89035C6.68463 3.99854 6.80411 4.08434 6.93767 4.14181C7.01057 4.18195 7.06805 4.2452 7.10105 4.3216C7.13406 4.398 7.14071 4.48321 7.11996 4.56381C7.09921 4.6444 7.05223 4.7158 6.98644 4.76677C6.92064 4.81773 6.83977 4.84536 6.75654 4.84531H6.75767Z" fill="white"/>
<path d="M3.42014 6.52605H3.40964C3.31057 6.5233 3.21662 6.48145 3.14832 6.40963C3.08001 6.33782 3.04292 6.24189 3.04514 6.1428C3.04907 5.35785 3.35513 4.60455 3.89979 4.03929C4.44445 3.47404 5.18587 3.14023 5.97014 3.10718C6.06959 3.10096 6.16745 3.13451 6.24217 3.20044C6.31689 3.26637 6.36236 3.35928 6.36858 3.45874C6.37479 3.5582 6.34124 3.65605 6.27531 3.73077C6.20938 3.80549 6.11647 3.85096 6.01701 3.85718C3.88626 3.99068 3.79701 6.07493 3.79439 6.1638C3.79108 6.2609 3.75022 6.35293 3.68041 6.4205C3.6106 6.48807 3.51729 6.52591 3.42014 6.52605Z" fill="white"/>
</svg>
