<svg width="20" height="24" viewBox="0 0 20 24" fill="none" xmlns="http://www.w3.org/2000/svg">
<path d="M18.0999 10.9336C17.7714 10.5336 17.3715 10.187 17.0001 9.84028C16.0431 9.04026 14.9576 8.46691 14.0435 7.62688C11.9153 5.68016 11.444 2.46674 12.8009 0C11.444 0.306675 10.2585 1.00003 9.24439 1.76005C5.54507 4.53346 4.08819 9.42693 5.83073 13.6271C5.88786 13.7604 5.94499 13.8937 5.94499 14.0671C5.94499 14.3604 5.73075 14.6271 5.44508 14.7338C5.11657 14.8671 4.77378 14.7871 4.5024 14.5737C4.42134 14.5104 4.35354 14.4335 4.30244 14.3471C2.68845 12.4404 2.43135 9.70694 3.51687 7.52021C1.13159 9.3336 -0.168174 12.4004 0.0175064 15.2938C0.103205 15.9605 0.188904 16.6271 0.431716 17.2938C0.63168 18.0938 1.01732 18.8939 1.44582 19.6006C2.98839 21.9073 5.65933 23.5607 8.53023 23.894C11.5868 24.254 14.8576 23.734 17.2001 21.7606C19.8139 19.5472 20.728 16.0005 19.3854 12.9604L19.1997 12.6137C18.8998 12.0003 18.0999 10.9336 18.0999 10.9336ZM13.5865 19.3339C13.1865 19.6539 12.5295 20.0006 12.0153 20.1339C10.4156 20.6673 8.8159 19.9206 7.87321 19.0405C9.5729 18.6672 10.587 17.4938 10.8869 16.3071C11.1298 15.2404 10.6727 14.3604 10.487 13.3337C10.3156 12.347 10.3442 11.507 10.7298 10.587C11.0012 11.0936 11.2869 11.6003 11.6297 12.0003C12.7295 13.3337 14.4577 13.9204 14.8291 15.7338C14.8862 15.9205 14.9148 16.1071 14.9148 16.3071C14.9576 17.4005 14.4434 18.6005 13.5865 19.3339Z" fill="white"/>
</svg>
