<svg width="14" height="20" viewBox="0 0 14 20" fill="none" xmlns="http://www.w3.org/2000/svg">
<path d="M1.90906 17.1429H13.9999V1.42858C13.9999 1.04969 13.8658 0.68633 13.6272 0.41842C13.3885 0.15051 13.0648 0 12.7272 0H1.90906V17.1429Z" fill="#5F6368"/>
<path d="M0.636475 17.8571H14.0001V19.2856H0.636475V17.8571Z" fill="white"/>
<path d="M0.954543 0C0.701383 0 0.458591 0.112883 0.279579 0.313815C0.100568 0.514748 0 0.78727 0 1.07143V18.5715H0.636362C0.636362 18.382 0.703407 18.2004 0.822748 18.0664C0.942089 17.9324 1.10395 17.8572 1.27272 17.8572H1.90909V0H0.954543Z" fill="#202124"/>
<path d="M0.954543 17.1429C0.701383 17.1429 0.458591 17.2558 0.279579 17.4568C0.100568 17.6577 0 17.9302 0 18.2144V18.9287C0 19.2128 0.100568 19.4853 0.279579 19.6863C0.458591 19.8872 0.701383 20.0001 0.954543 20.0001H13.0454C13.2429 20.0002 13.4356 19.9316 13.5968 19.8036C13.7581 19.6757 13.8801 19.4948 13.9459 19.2858H1.27272C1.10395 19.2858 0.942089 19.2106 0.822748 19.0766C0.703407 18.9426 0.636362 18.761 0.636362 18.5715C0.636362 18.3821 0.703407 18.2004 0.822748 18.0664C0.942089 17.9325 1.10395 17.8572 1.27272 17.8572H14V17.1429H0.954543Z" fill="#202124"/>
</svg>
