<svg width="17" height="17" viewBox="0 0 17 17" fill="none" xmlns="http://www.w3.org/2000/svg">
<path d="M16 9.17568C15.8686 10.5972 15.3351 11.9519 14.4619 13.0813C13.5887 14.2107 12.412 15.068 11.0693 15.553C9.72662 16.038 8.2736 16.1305 6.88024 15.8198C5.48688 15.5092 4.21082 14.8081 3.20137 13.7986C2.19192 12.7892 1.49084 11.5131 1.18015 10.1198C0.869466 8.7264 0.962029 7.27338 1.44701 5.93071C1.93199 4.58804 2.78933 3.41125 3.91872 2.53806C5.0481 1.66486 6.4028 1.13137 7.82432 1C6.99207 2.12594 6.59158 3.51321 6.69571 4.90947C6.79983 6.30574 7.40164 7.61826 8.3917 8.60831C9.38175 9.59836 10.6943 10.2002 12.0905 10.3043C13.4868 10.4084 14.8741 10.0079 16 9.17568Z" stroke="#5F6368" stroke-width="2" stroke-linecap="round" stroke-linejoin="round"/>
</svg>
