<svg width="6" height="6" viewBox="0 0 6 6" fill="none" xmlns="http://www.w3.org/2000/svg">
<path d="M4.26549 4.87478C3.76549 4.88803 3.22249 4.51603 3.13474 3.72478L3.12799 3.64653L3.12774 3.64503C3.07999 2.81528 3.65874 1.68078 4.92299 1.13528C4.95112 1.12315 4.98272 1.12176 5.0118 1.1314C5.04088 1.14103 5.06541 1.161 5.08074 1.18753L5.35824 1.66728C5.36651 1.6816 5.37186 1.69742 5.37397 1.71383C5.37609 1.73023 5.37493 1.74689 5.37055 1.76285C5.36618 1.7788 5.35869 1.79372 5.34851 1.80676C5.33832 1.81979 5.32566 1.83068 5.31124 1.83878C4.88374 2.07928 4.55049 2.45653 4.34999 2.91428C4.64749 2.96678 4.86124 3.09003 5.00449 3.25428C5.17124 3.44578 5.23074 3.67928 5.23074 3.88353C5.23074 4.43703 4.80499 4.88478 4.26574 4.87478M1.76574 4.87478C1.26574 4.88803 0.722737 4.51603 0.634987 3.72478L0.628237 3.64653L0.627987 3.64503C0.580237 2.81528 1.15899 1.68078 2.42324 1.13528C2.45137 1.12315 2.48297 1.12176 2.51205 1.1314C2.54113 1.14103 2.56566 1.161 2.58099 1.18753L2.85849 1.66728C2.86676 1.6816 2.87211 1.69742 2.87422 1.71383C2.87634 1.73023 2.87518 1.74689 2.87081 1.76285C2.86643 1.7788 2.85894 1.79372 2.84876 1.80676C2.83857 1.81979 2.82591 1.83068 2.81149 1.83878C2.38399 2.07928 2.05074 2.45653 1.85024 2.91428C2.14774 2.96678 2.36149 3.09003 2.50474 3.25428C2.67149 3.44578 2.73099 3.67928 2.73099 3.88353C2.73099 4.43703 2.30474 4.88478 1.76574 4.87478Z" fill="black"/>
</svg>
