<svg width="4" height="4" viewBox="0 0 4 4" fill="none" xmlns="http://www.w3.org/2000/svg">
<path d="M3.25 0.416316V1.41658M3.25 1.41658H2.43182M3.25 1.41658L2.61727 0.689721C2.47072 0.51046 2.2894 0.379507 2.09025 0.309084C1.8911 0.23866 1.68061 0.231059 1.4784 0.286992C1.2762 0.342924 1.08888 0.460567 0.933927 0.628942C0.778973 0.797317 0.661432 1.01094 0.592273 1.24987M0.25 3.08368V2.08342M0.25 2.08342H1.06818M0.25 2.08342L0.882727 2.81028C1.02928 2.98954 1.2106 3.12049 1.40975 3.19092C1.6089 3.26134 1.81939 3.26894 2.0216 3.21301C2.2238 3.15708 2.41112 3.03943 2.56607 2.87106C2.72103 2.70268 2.83857 2.48906 2.90773 2.25013" stroke="#5F6368" stroke-width="0.5" stroke-linecap="round" stroke-linejoin="round"/>
</svg>
