<svg width="24" height="24" viewBox="0 0 24 24" fill="none" xmlns="http://www.w3.org/2000/svg">
<path d="M23.9218 1.01745C23.8696 0.495709 23.4783 0.104404 22.9566 0.0522304C16.3566 -0.469509 11.6348 2.73919 8.68699 6.75658C7.0696 6.23484 5.32177 6.41745 3.73047 7.3044C2.19133 8.16527 0.913074 9.62614 0.0782914 11.4001C-0.104317 11.8174 -0.0260564 12.287 0.313074 12.6001C0.626118 12.9131 1.12177 12.9653 1.51307 12.7566C3.18264 11.8696 5.0609 12.0522 6.18264 13.174L10.7739 17.7653L10.8 17.7914C11.9218 18.9131 12.1044 20.7914 11.2174 22.4609C11.0087 22.8522 11.087 23.3479 11.3739 23.6609C11.5826 23.8696 11.8435 23.974 12.1305 23.974C12.287 23.974 12.4435 23.9479 12.5739 23.8696C14.3479 23.0348 15.8087 21.7305 16.6696 20.2174C17.5826 18.6261 17.7652 16.8783 17.2174 15.2348C18.3913 14.374 19.4609 13.4348 20.3479 12.3914C23.1131 9.23484 24.3131 5.40006 23.9218 1.01745ZM3.49568 10.1218C4.61742 9.02614 6.02612 8.34788 7.51307 8.60875C7.09568 9.33919 6.75655 10.0696 6.44351 10.8001C5.55655 10.3044 4.53916 10.0696 3.49568 10.1218ZM13.9044 20.5044C13.9305 19.4348 13.6957 18.4174 13.2261 17.5305C13.9826 17.2174 14.7131 16.8522 15.4174 16.4609C15.6783 17.9479 15.0261 19.3827 13.9044 20.5044ZM11.8174 15.8348L8.13916 12.1566C9.99133 7.22614 14.5826 1.95658 21.9131 2.08701C22.1479 10.8261 14.9479 14.6088 11.8174 15.8348ZM18.5739 5.42614C18.887 5.73919 19.0696 6.18266 19.0696 6.62614C19.0696 7.06962 18.887 7.5131 18.5739 7.82614C18.2609 8.13919 17.8174 8.3218 17.3739 8.3218C16.9305 8.3218 16.487 8.16527 16.1739 7.82614C15.8609 7.48701 15.6783 7.06962 15.6783 6.62614C15.6783 6.18266 15.8609 5.73919 16.1739 5.42614C16.487 5.1131 16.9305 4.93049 17.3739 4.93049C17.8174 4.93049 18.2609 5.1131 18.5739 5.42614ZM3.88699 16.2783C2.68699 17.4783 2.63481 19.8783 2.63481 20.3479C2.63481 20.9218 3.10438 21.3914 3.67829 21.3914H3.70438C4.2522 21.3914 6.54786 21.3131 7.72177 20.1392C8.4522 19.4088 8.60873 18.6522 8.60873 18.1566C8.60873 17.4522 8.32177 16.774 7.77394 16.2261C6.4696 14.8957 4.82612 15.3131 3.88699 16.2783ZM6.2609 18.6522C6.00003 18.9131 5.42612 19.0957 4.82612 19.174C4.93047 18.574 5.11307 18.0001 5.34786 17.7653C5.53047 17.5827 5.68699 17.4783 5.8696 17.4783C6.00003 17.4783 6.15655 17.5566 6.31307 17.7131C6.4696 17.8696 6.54786 18.0261 6.54786 18.1566C6.52177 18.3131 6.39133 18.5218 6.2609 18.6522Z" fill="white"/>
</svg>
