<svg width="24" height="24" viewBox="0 0 24 24" fill="none" xmlns="http://www.w3.org/2000/svg">
<path d="M11.9999 4.74997C10.8125 4.74945 9.64306 5.04062 8.59447 5.59788C7.54588 6.15514 6.65022 6.96143 5.9862 7.94589C5.32219 8.93036 4.91016 10.0629 4.78631 11.2438C4.66247 12.4248 4.8306 13.6182 5.27595 14.719C5.31638 14.8109 5.33794 14.91 5.33937 15.0103C5.34079 15.1107 5.32205 15.2104 5.28424 15.3034C5.24644 15.3964 5.19035 15.4809 5.11929 15.5518C5.04823 15.6227 4.96365 15.6787 4.87057 15.7163C4.77749 15.7539 4.6778 15.7725 4.57742 15.7709C4.47703 15.7693 4.37799 15.7475 4.28616 15.7069C4.19434 15.6663 4.1116 15.6077 4.04285 15.5345C3.97411 15.4614 3.92075 15.3751 3.88595 15.281C3.12949 13.4101 3.04295 11.3353 3.64098 9.40793C4.23902 7.48057 5.48486 5.81917 7.1675 4.70514C8.85014 3.5911 10.8661 3.09291 12.874 3.29496C14.8819 3.497 16.7582 4.38686 18.1851 5.81381C19.6121 7.24075 20.5019 9.11706 20.704 11.1249C20.906 13.1328 20.4078 15.1488 19.2938 16.8314C18.1797 18.5141 16.5183 19.7599 14.591 20.3579C12.6636 20.956 10.5888 20.8694 8.71795 20.113C8.53757 20.0356 8.3947 19.8906 8.32001 19.7091C8.24532 19.5276 8.24476 19.3241 8.31844 19.1421C8.39212 18.9602 8.53418 18.8144 8.71413 18.7361C8.89407 18.6577 9.09757 18.653 9.28095 18.723C10.2723 19.1231 11.3398 19.299 12.4071 19.2382C13.4743 19.1774 14.515 18.8813 15.4544 18.3712C16.3938 17.861 17.2088 17.1494 17.841 16.2874C18.4732 15.4253 18.9069 14.4341 19.1111 13.3848C19.3153 12.3354 19.2849 11.2539 19.0221 10.2177C18.7593 9.18151 18.2706 8.21624 17.591 7.39104C16.9114 6.56584 16.0578 5.90114 15.0912 5.44455C14.1246 4.98795 13.069 4.75076 11.9999 4.74997Z" fill="white"/>
<path d="M6.24998 12C6.24998 13.317 6.69298 14.531 7.43798 15.501L6.96898 15.97L6.93998 16H5.76998C5.37229 16.0004 4.99101 16.1586 4.70998 16.44L3.07298 18.077C2.96822 18.1819 2.8969 18.3155 2.86801 18.4609C2.83913 18.6063 2.85398 18.757 2.91069 18.8939C2.9674 19.0309 3.06343 19.148 3.18665 19.2304C3.30986 19.3128 3.45474 19.3569 3.60298 19.357H4.64298V20.397C4.64311 20.5453 4.68717 20.6901 4.76959 20.8134C4.85201 20.9366 4.96909 21.0326 5.10606 21.0893C5.24302 21.146 5.39372 21.1609 5.53911 21.132C5.68451 21.1031 5.81809 21.0318 5.92298 20.927L7.55998 19.289C7.84112 19.0082 7.99936 18.6274 7.99998 18.23V17.06L8.02998 17.031L8.49898 16.563C9.52862 17.3533 10.7954 17.772 12.0932 17.751C13.391 17.7299 14.6435 17.2704 15.647 16.4472C16.6504 15.6239 17.3459 14.4854 17.6201 13.2167C17.8944 11.948 17.7314 10.6239 17.1575 9.45967C16.5837 8.29543 15.6329 7.35958 14.4596 6.80435C13.2864 6.24912 11.9599 6.10717 10.6957 6.40159C9.43158 6.696 8.30424 7.40947 7.49706 8.42593C6.68989 9.44239 6.25036 10.702 6.24998 12ZM12 7.75002C12.6669 7.75021 13.3245 7.90736 13.9194 8.20876C14.5144 8.51017 15.0301 8.94737 15.4247 9.485C15.8194 10.0226 16.082 10.6456 16.1913 11.3035C16.3006 11.9615 16.2535 12.6359 16.0539 13.2723C15.8542 13.9086 15.5076 14.4891 15.0421 14.9666C14.5765 15.4442 14.0051 15.8055 13.374 16.0214C12.743 16.2372 12.07 16.3014 11.4095 16.209C10.749 16.1165 10.1195 15.8699 9.57198 15.489L11.218 13.842C11.6453 14.0233 12.1224 14.0503 12.5674 13.9184C13.0124 13.7865 13.3978 13.504 13.6573 13.1191C13.9168 12.7343 14.0344 12.2711 13.9899 11.8091C13.9454 11.3471 13.7416 10.9149 13.4133 10.5867C13.0851 10.2584 12.6529 10.0546 12.1909 10.0101C11.7289 9.96558 11.2657 10.0832 10.8809 10.3427C10.496 10.6022 10.2134 10.9875 10.0816 11.4326C9.94967 11.8776 9.97668 12.3547 10.158 12.782L8.50998 14.427C8.06656 13.7896 7.80624 13.0429 7.7573 12.2679C7.70835 11.493 7.87264 10.7195 8.23233 10.0313C8.59202 9.34315 9.13336 8.76669 9.79757 8.36451C10.4618 7.96233 11.2235 7.74981 12 7.75002ZM6.93998 17L6.99998 17.059V18.229C6.99969 18.3615 6.94681 18.4885 6.85298 18.582L5.64298 19.792V18.857C5.64298 18.7244 5.5903 18.5972 5.49653 18.5035C5.40276 18.4097 5.27559 18.357 5.14298 18.357H4.20698L5.41698 17.147C5.46342 17.1004 5.51859 17.0635 5.57933 17.0382C5.64008 17.013 5.7052 17 5.77098 17H6.93998Z" fill="white"/>
</svg>
